<?xml version="1.0" encoding="UTF-8" standalone="no"?>
<!DOCTYPE svg PUBLIC "-//W3C//DTD SVG 1.1//EN"
 "http://www.w3.org/Graphics/SVG/1.1/DTD/svg11.dtd">
<!-- Generated by graphviz version 2.40.1 (20161225.0304)
 -->
<!-- Title: G Pages: 1 -->
<svg width="4069pt" height="178pt"
 viewBox="0.00 0.00 4068.93 178.46" xmlns="http://www.w3.org/2000/svg" xmlns:xlink="http://www.w3.org/1999/xlink">
<g id="graph0" class="graph" transform="scale(1 1) rotate(0) translate(4 174.4626)">
<title>G</title>
<polygon fill="#ffffff" stroke="transparent" points="-4,4 -4,-174.4626 4064.9336,-174.4626 4064.9336,4 -4,4"/>
<!-- 0 -->
<g id="node1" class="node">
<title>0</title>
<ellipse fill="none" stroke="#000000" cx="1645.296" cy="-141.0469" rx="82.7859" ry="18"/>
<text text-anchor="middle" x="1645.296" y="-136.8469" font-family="Times,serif" font-size="14.00" fill="#000000">DiffGraph of Olda</text>
</g>
<!-- 1 -->
<g id="node2" class="node">
<title>1</title>
<ellipse fill="none" stroke="#000000" cx="2214.296" cy="-141.0469" rx="467.8827" ry="29.3315"/>
<text text-anchor="middle" x="2214.296" y="-145.2469" font-family="Times,serif" font-size="14.00" fill="#000000">org/apache/commons/math3/optim/nonlinear/scalar/noderiv/SimplexOptimizerMultiDirectionalTest:testMinimize2</text>
<text text-anchor="middle" x="2214.296" y="-128.4469" font-family="Times,serif" font-size="14.00" fill="#000000">DisAligned: Othe Method Call</text>
</g>
<!-- 2 -->
<g id="node3" class="node">
<title>2</title>
<ellipse fill="none" stroke="#000000" cx="351.296" cy="-29.4156" rx="351.0922" ry="29.3315"/>
<text text-anchor="middle" x="351.296" y="-33.6156" font-family="Times,serif" font-size="14.00" fill="#000000">org/apache/commons/math3/optim/nonlinear/scalar/noderiv/SimplexOptimizer:&lt;init&gt;</text>
<text text-anchor="middle" x="351.296" y="-16.8156" font-family="Times,serif" font-size="14.00" fill="#000000">Same Hash</text>
</g>
<!-- 1&#45;&gt;2 -->
<g id="edge1" class="edge">
<title>1&#45;&gt;2</title>
<path fill="none" stroke="#000000" d="M1883.6255,-120.2178C1834.5705,-117.2547 1784.6169,-114.3079 1737.296,-111.6313 1281.4213,-85.8454 1166.891,-89.1607 711.296,-58.8313 677.6965,-56.5945 642.3527,-54.0019 607.4748,-51.301"/>
<polygon fill="#000000" stroke="#000000" points="607.4034,-47.7849 597.1619,-50.4982 606.8601,-54.7638 607.4034,-47.7849"/>
<text text-anchor="middle" x="1367.796" y="-81.0313" font-family="Times,serif" font-size="14.00" fill="#000000">0</text>
</g>
<!-- 3 -->
<g id="node4" class="node">
<title>3</title>
<ellipse fill="none" stroke="#000000" cx="1212.296" cy="-29.4156" rx="492.104" ry="29.3315"/>
<text text-anchor="middle" x="1212.296" y="-33.6156" font-family="Times,serif" font-size="14.00" fill="#000000">org/apache/commons/math3/optim/nonlinear/scalar/noderiv/SimplexOptimizerMultiDirectionalTest$FourExtrema:&lt;init&gt;</text>
<text text-anchor="middle" x="1212.296" y="-16.8156" font-family="Times,serif" font-size="14.00" fill="#000000">Same Hash</text>
</g>
<!-- 1&#45;&gt;3 -->
<g id="edge2" class="edge">
<title>1&#45;&gt;3</title>
<path fill="none" stroke="#000000" d="M1984.1027,-115.4014C1825.912,-97.7777 1616.2261,-74.4169 1455.3422,-56.493"/>
<polygon fill="#000000" stroke="#000000" points="1455.628,-53.0033 1445.3019,-55.3745 1454.8529,-59.9603 1455.628,-53.0033"/>
<text text-anchor="middle" x="1776.796" y="-81.0313" font-family="Times,serif" font-size="14.00" fill="#000000">1</text>
</g>
<!-- 4 -->
<g id="node5" class="node">
<title>4</title>
<ellipse fill="none" stroke="#000000" cx="1938.296" cy="-29.4156" rx="215.4796" ry="29.3315"/>
<text text-anchor="middle" x="1938.296" y="-33.6156" font-family="Times,serif" font-size="14.00" fill="#000000">org/apache/commons/math3/optim/MaxEval:&lt;init&gt;</text>
<text text-anchor="middle" x="1938.296" y="-16.8156" font-family="Times,serif" font-size="14.00" fill="#000000">Same Hash</text>
</g>
<!-- 1&#45;&gt;4 -->
<g id="edge3" class="edge">
<title>1&#45;&gt;4</title>
<path fill="none" stroke="#000000" d="M2142.1408,-111.8629C2103.6958,-96.3134 2056.3457,-77.1621 2016.9604,-61.2323"/>
<polygon fill="#000000" stroke="#000000" points="2018.233,-57.9717 2007.6502,-57.4667 2015.6083,-64.461 2018.233,-57.9717"/>
<text text-anchor="middle" x="2096.796" y="-81.0313" font-family="Times,serif" font-size="14.00" fill="#000000">2</text>
</g>
<!-- 5 -->
<g id="node6" class="node">
<title>5</title>
<ellipse fill="none" stroke="#000000" cx="2490.296" cy="-29.4156" rx="318.7029" ry="29.3315"/>
<text text-anchor="middle" x="2490.296" y="-33.6156" font-family="Times,serif" font-size="14.00" fill="#000000">org/apache/commons/math3/optim/nonlinear/scalar/ObjectiveFunction:&lt;init&gt;</text>
<text text-anchor="middle" x="2490.296" y="-16.8156" font-family="Times,serif" font-size="14.00" fill="#000000">Same Hash</text>
</g>
<!-- 1&#45;&gt;5 -->
<g id="edge4" class="edge">
<title>1&#45;&gt;5</title>
<path fill="none" stroke="#000000" d="M2286.4513,-111.8629C2324.145,-96.6173 2370.3994,-77.9092 2409.314,-62.1697"/>
<polygon fill="#000000" stroke="#000000" points="2411.0817,-65.2303 2419.0398,-58.236 2408.457,-58.741 2411.0817,-65.2303"/>
<text text-anchor="middle" x="2372.796" y="-81.0313" font-family="Times,serif" font-size="14.00" fill="#000000">3</text>
</g>
<!-- 6 -->
<g id="node7" class="node">
<title>6</title>
<ellipse fill="none" stroke="#000000" cx="3096.296" cy="-29.4156" rx="269.2416" ry="29.3315"/>
<text text-anchor="middle" x="3096.296" y="-33.6156" font-family="Times,serif" font-size="14.00" fill="#000000">DIFFERENT METHOD_CALL</text>
<text text-anchor="middle" x="3096.296" y="-16.8156" font-family="Times,serif" font-size="14.00" fill="#000000">ORIGIN : org/apache/commons/math3/optim/InitialGuess:&lt;init&gt;</text>
</g>
<!-- 1&#45;&gt;6 -->
<g id="edge5" class="edge">
<title>1&#45;&gt;6</title>
<path fill="none" stroke="#000000" d="M2422.4799,-114.6979C2570.3279,-95.9854 2767.1217,-71.0779 2909.8361,-53.0151"/>
<polygon fill="#000000" stroke="#000000" points="2910.5353,-56.4547 2920.0166,-51.7266 2909.6563,-49.5101 2910.5353,-56.4547"/>
<text text-anchor="middle" x="2711.796" y="-81.0313" font-family="Times,serif" font-size="14.00" fill="#000000">4</text>
</g>
<!-- 7 -->
<g id="node8" class="node">
<title>7</title>
<ellipse fill="none" stroke="#000000" cx="3722.296" cy="-29.4156" rx="338.7751" ry="29.3315"/>
<text text-anchor="middle" x="3722.296" y="-33.6156" font-family="Times,serif" font-size="14.00" fill="#000000">DIFFERENT METHOD_CALL</text>
<text text-anchor="middle" x="3722.296" y="-16.8156" font-family="Times,serif" font-size="14.00" fill="#000000">TARGET : org/apache/commons/math3/optim/nonlinear/scalar/GoalType:&lt;clinit&gt;</text>
</g>
<!-- 1&#45;&gt;7 -->
<g id="edge6" class="edge">
<title>1&#45;&gt;7</title>
<path fill="none" stroke="#000000" d="M2534.1111,-119.5513C2767.1218,-103.6046 3090.355,-80.8929 3374.296,-58.8313 3405.7961,-56.3838 3438.8912,-53.7139 3471.6269,-51.0135"/>
<polygon fill="#000000" stroke="#000000" points="3472.0949,-54.4869 3481.7725,-50.1747 3471.5181,-47.5107 3472.0949,-54.4869"/>
<text text-anchor="middle" x="3123.796" y="-81.0313" font-family="Times,serif" font-size="14.00" fill="#000000">5</text>
</g>
</g>
</svg>
